<?xml version="1.0" standalone="no"?><!DOCTYPE svg PUBLIC "-//W3C//DTD SVG 1.1//EN" "http://www.w3.org/Graphics/SVG/1.1/DTD/svg11.dtd"><svg t="1556527659705" class="icon" style="" viewBox="0 0 1024 1024" version="1.1" xmlns="http://www.w3.org/2000/svg" p-id="7772" xmlns:xlink="http://www.w3.org/1999/xlink" width="32" height="32"><defs><style type="text/css"></style></defs><path d="M840.533333 610.133333c-8.533333-8.533333-17.066667-17.066667-25.6-21.333333-17.066667-8.533333-34.133333-12.8-55.466666-12.8 4.266667-21.333333 8.533333-42.666667 8.533333-64s-4.266667-42.666667-8.533333-64c17.066667 4.266667 38.4 0 55.466666-12.8 8.533333-4.266667 17.066667-12.8 25.6-21.333333 8.533333 29.866667 12.8 64 12.8 98.133333s-4.266667 68.266667-12.8 98.133333z m-81.066666 136.533334c-46.933333 46.933333-102.4 81.066667-170.666667 98.133333 4.266667-8.533333 8.533333-21.333333 8.533333-34.133333 0-21.333333-8.533333-38.4-17.066666-51.2 42.666667-12.8 81.066667-34.133333 110.933333-64 8.533333 17.066667 21.333333 29.866667 34.133333 42.666666 12.8 4.266667 25.6 8.533333 34.133334 8.533334zM183.466667 413.866667c8.533333 8.533333 17.066667 17.066667 25.6 21.333333 17.066667 8.533333 34.133333 12.8 55.466666 12.8-4.266667 21.333333-8.533333 42.666667-8.533333 64s4.266667 42.666667 8.533333 64c-17.066667-4.266667-38.4 0-55.466666 12.8-8.533333 4.266667-17.066667 12.8-25.6 21.333333-8.533333-29.866667-12.8-64-12.8-98.133333s4.266667-68.266667 12.8-98.133333z m81.066666-136.533334c46.933333-46.933333 102.4-81.066667 170.666667-98.133333-4.266667 12.8-8.533333 21.333333-8.533333 34.133333 0 21.333333 8.533333 38.4 17.066666 51.2-42.666667 12.8-81.066667 34.133333-110.933333 64-8.533333-17.066667-21.333333-29.866667-38.4-38.4-8.533333-8.533333-21.333333-12.8-29.866667-12.8z m0 469.333334c12.8 0 21.333333-4.266667 34.133334-12.8 17.066667-8.533333 29.866667-25.6 34.133333-42.666667 29.866667 29.866667 68.266667 51.2 110.933333 64-8.533333 17.066667-17.066667 34.133333-17.066666 55.466667 0 12.8 4.266667 21.333333 8.533333 34.133333-68.266667-17.066667-128-51.2-170.666667-98.133333z m494.933334-469.333334c-12.8 0-21.333333 4.266667-34.133334 12.8-17.066667 8.533333-29.866667 25.6-34.133333 42.666667-29.866667-29.866667-68.266667-51.2-110.933333-64 8.533333-17.066667 17.066667-34.133333 17.066666-55.466667 0-12.8-4.266667-21.333333-8.533333-34.133333 68.266667 17.066667 128 51.2 170.666667 98.133333zM512 256c-25.6 0-42.666667-17.066667-42.666667-42.666667s17.066667-42.666667 42.666667-42.666666 42.666667 17.066667 42.666667 42.666666-17.066667 42.666667-42.666667 42.666667z m0 597.333333c-25.6 0-42.666667-17.066667-42.666667-42.666666s17.066667-42.666667 42.666667-42.666667 42.666667 17.066667 42.666667 42.666667-17.066667 42.666667-42.666667 42.666666z m221.866667-469.333333c-12.8-21.333333-4.266667-46.933333 17.066666-59.733333 17.066667-8.533333 46.933333-4.266667 55.466667 17.066666s4.266667 46.933333-17.066667 59.733334c-17.066667 8.533333-42.666667 4.266667-55.466666-17.066667zM217.6 682.666667c-12.8-21.333333-4.266667-46.933333 17.066667-59.733334 21.333333-12.8 46.933333-4.266667 59.733333 17.066667 12.8 21.333333 4.266667 46.933333-17.066667 59.733333s-51.2 4.266667-59.733333-17.066666z m72.533333-298.666667c-12.8 21.333333-38.4 25.6-59.733333 17.066667-17.066667-12.8-25.6-38.4-12.8-59.733334 8.533333-21.333333 38.4-25.6 55.466667-17.066666 21.333333 12.8 29.866667 38.4 17.066666 59.733333z m516.266667 298.666667c-12.8 21.333333-38.4 25.6-59.733333 17.066666s-25.6-38.4-17.066667-59.733333 38.4-25.6 59.733333-17.066667c21.333333 12.8 29.866667 38.4 17.066667 59.733334zM597.333333 448c0 46.933333-38.4 85.333333-85.333333 85.333333s-85.333333-38.4-85.333333-85.333333 38.4-85.333333 85.333333-85.333333 85.333333 38.4 85.333333 85.333333z m-170.666666 128h170.666666v85.333333h-170.666666v-85.333333z" fill="#dbdbdb" p-id="7773"></path></svg>