<?xml version="1.0" standalone="no"?><!DOCTYPE svg PUBLIC "-//W3C//DTD SVG 1.1//EN" "http://www.w3.org/Graphics/SVG/1.1/DTD/svg11.dtd"><svg t="1556526605218" class="icon" style="" viewBox="0 0 1040 1024" version="1.1" xmlns="http://www.w3.org/2000/svg" p-id="1536" xmlns:xlink="http://www.w3.org/1999/xlink" width="32.5" height="32"><defs><style type="text/css"></style></defs><path d="M690.794106 382.923226c-11.656481 16.910135-12.815887 40.266076-11.32186 58.597583L553.446971 441.520809c-11.863189-82.990133-82.880639-147.083893-169.229263-147.752112-95.15622-0.733711-172.893722 75.847455-173.627433 171.039491-0.735757 95.193059 75.810616 172.960237 170.966836 173.695994 10.920724 0.077771 21.611204-0.862647 31.985482-2.727111l0 122.787534c-6.480598-0.110517-12.43317 0.10847-17.250896 0.593518-49.568952 4.976338-38.587853 73.825402-68.14503 86.264713-34.288944 14.431687-89.841168-4.300956-105.754602-36.978193-9.768481-20.057825 20.511149-45.567825-1.774413-81.982176-8.972349-14.656815-25.688055-39.778982-43.004443-48.550763-29.684066-15.027252-53.422723 10.878768-91.742471 20.992103-20.889773 5.51562-43.86095-37.70781-50.197262-53.426817-14.619976-36.286438-18.23327-48.428989 29.53364-79.32772 28.492938-18.433838 27.764344-73.854055 22.473851-101.08321-2.764973-14.226003-25.251104-24.825408-47.973618-29.30135-37.974893-7.471159-62.180178-54.910611-8.673543-125.429711 18.070564-23.817452 50.105165 18.032702 94.02035-4.100388 11.777231-5.934153 51.836599-32.045857 53.481052-59.860343 2.133593-36.056194-25.832342-54.187133-25.972535-70.112847-0.309038-37.653575 55.140855-67.348897 75.245751-69.336158 41.24845-4.063549 42.894949 38.522362 76.667124 58.45125 27.576055 16.278755 64.470337 13.357216 81.877799 7.866155 24.248264-7.647167 26.074865-67.762313 51.234895-81.5749 32.453133-17.808598 89.48915 6.758937 105.829304 27.339672 9.340739 11.764951-9.299807 42.627866-7.751544 67.439972 1.579985 25.38311 29.903054 48.604998 40.514739 58.177004 54.764278 49.39499 88.317465-17.068747 115.729791-6.341429 29.90817 11.704576 54.630225 61.48126 52.303226 92.016717C742.228545 356.477924 716.931393 345.020988 690.794106 382.923226L690.794106 382.923226zM690.794106 382.923226" p-id="1537" fill="#8a8a8a"></path><path d="M498.385934 513.400906c15.622816 0 28.28009 12.659321 28.28009 28.282137 0 15.622816-12.657274 28.28009-28.28009 28.28009-15.616676 0-28.282137-12.657274-28.282137-28.28009C470.103798 526.059204 482.769258 513.400906 498.385934 513.400906L498.385934 513.400906zM498.385934 513.400906" p-id="1538" fill="#8a8a8a"></path><path d="M576.75277 513.400906l419.511539 0c15.294334 0 27.692712 12.397355 27.692712 27.692712l0 1.178849c0 15.294334-12.397355 27.690666-27.692712 27.690666L576.75277 569.963133c-15.294334 0-27.690666-12.396331-27.690666-27.690666l0-1.178849C549.062104 525.798261 561.458435 513.400906 576.75277 513.400906L576.75277 513.400906zM576.75277 513.400906" p-id="1539" fill="#8a8a8a"></path><path d="M498.385934 677.200506c15.622816 0 28.28009 12.659321 28.28009 28.282137 0 15.616676-12.657274 28.28009-28.28009 28.28009-15.616676 0-28.282137-12.657274-28.282137-28.28009C470.103798 689.858804 482.769258 677.200506 498.385934 677.200506L498.385934 677.200506zM498.385934 677.200506" p-id="1540" fill="#8a8a8a"></path><path d="M576.75277 677.200506l419.511539 0c15.294334 0 27.692712 12.397355 27.692712 27.692712l0 1.178849c0 15.294334-12.397355 27.690666-27.692712 27.690666L576.75277 733.762733c-15.294334 0-27.690666-12.396331-27.690666-27.690666l0-1.178849C549.062104 689.597861 561.458435 677.200506 576.75277 677.200506L576.75277 677.200506zM576.75277 677.200506" p-id="1541" fill="#8a8a8a"></path><path d="M498.385934 841.000106c15.622816 0 28.28009 12.659321 28.28009 28.282137s-12.657274 28.28009-28.28009 28.28009c-15.616676 0-28.282137-12.657274-28.282137-28.28009S482.769258 841.000106 498.385934 841.000106L498.385934 841.000106zM498.385934 841.000106" p-id="1542" fill="#8a8a8a"></path><path d="M576.75277 841.000106l419.511539 0c15.294334 0 27.692712 12.397355 27.692712 27.692712l0 1.178849c0 15.294334-12.397355 27.690666-27.692712 27.690666L576.75277 897.562333c-15.294334 0-27.690666-12.396331-27.690666-27.690666l0-1.178849C549.062104 853.397461 561.458435 841.000106 576.75277 841.000106L576.75277 841.000106zM576.75277 841.000106" p-id="1543" fill="#8a8a8a"></path></svg>