<?xml version="1.0" standalone="no"?><!DOCTYPE svg PUBLIC "-//W3C//DTD SVG 1.1//EN" "http://www.w3.org/Graphics/SVG/1.1/DTD/svg11.dtd"><svg t="1556620842356" class="icon" style="" viewBox="0 0 1141 1024" version="1.1" xmlns="http://www.w3.org/2000/svg" p-id="22395" xmlns:xlink="http://www.w3.org/1999/xlink" width="13.37109375" height="12"><defs><style type="text/css"></style></defs><path d="M838.767506 669.390213c-0.057407 31.245682-25.778371 57.130666-58.418217 58.226862-22.880696 0.765424-45.788729 0.300702-68.669426 0.300702-87.476975 0.027337-174.95395 0-262.403588 0.027336-27.117862 0-48.79575-10.223871-61.179209-35.018126-4.12782-8.231037-5.986705-18.236216-6.396754-27.555247-0.929443-20.447743-0.027337-40.977495-0.492058-61.479912-0.109346-5.169342-1.448837-10.879949-4.018473-15.311204-47.729624-82.802424-95.787287-165.413492-143.571585-248.188579-3.417069-5.959369-7.080168-8.446995-14.269682-8.392323-49.178462 0.355375-98.38426 0.410048-147.590058 0.109347C44.066526 331.920446 21.650551 321.395873 9.567794 295.23479c-3.581089-7.736245-5.193945-17.085347-5.248618-25.696361-0.410048-67.986011-0.218692-135.999359-0.218693-203.985371C4.100483 33.159241 20.611762 11.42668 51.884781 2.569636c2.569636-0.738087 5.057263-1.722203 7.572225-2.569636h344.495262c16.401933 4.975253 32.393817 10.4699 43.492458 24.876265 8.638351 11.153314 13.859633 23.427427 13.859633 37.642435 0.027337 69.0248 0.300702 138.049601-0.082009 207.047065-0.191356 35.209482-28.676046 61.780613-66.537174 62.464028-30.726287 0.574068-61.507248 0.136683-92.233536 0.164019h-13.094209c30.480258 52.458848 60.195093 103.523532 89.882591 154.588216 0.738087-0.136683 1.448837-0.273366 2.159588-0.410048 0-7.626899-0.027337-15.281134 0-22.908033 0.136683-32.639846 20.39307-57.434101 52.540858-63.694172 7.326197-1.421501 14.925759-1.886222 22.415975-1.886222 103.195494-0.109346 206.363651-0.054673 309.559145-0.109347 23.892149-0.027337 45.351344 5.467311 60.905843 25.340987 7.872928 10.032516 11.946074 21.404522 11.946075 34.088683 0.08201 70.747003 0.136683 141.46667 0 212.186337z" fill="#ffffff" p-id="22396"></path><path d="M1141.875224 884.91161c-95.513922 46.636162-189.414987 92.479564-284.926176 139.08839-1.312155-25.997063-2.569636-50.681972-3.884524-76.651699H0V526.9941h134.878561v284.163486h715.616327v-71.895139c97.536827 48.768413 193.542807 96.744067 291.380336 145.649163z" fill="#ffffff" p-id="22397"></path></svg>