<?xml version="1.0" standalone="no"?><!DOCTYPE svg PUBLIC "-//W3C//DTD SVG 1.1//EN" "http://www.w3.org/Graphics/SVG/1.1/DTD/svg11.dtd"><svg t="1557882755556" class="icon" style="" viewBox="0 0 1105 1024" version="1.1" xmlns="http://www.w3.org/2000/svg" p-id="3245" xmlns:xlink="http://www.w3.org/1999/xlink" width="12.94921875" height="12"><defs><style type="text/css"></style></defs><path d="M1050.437818 275.944727h-16.698182v-78.685091c0-65.664-33.128727-126.987636-88.424727-163.886545C912.733091 11.392 874.682182 0 834.711273 0H232.436364c-30.114909 0-54.481455 24.145455-54.481455 53.992727v239.045818H54.493091C24.378182 293.038545 0.011636 317.184 0.011636 347.031273V899.456c0 33.373091 10.402909 64.034909 29.288728 86.283636 20.805818 24.424727 49.559273 37.178182 82.955636 37.178182h14.510545c3.84 0.814545 7.668364 1.082182 11.496728 1.082182h912.721454C1081.099636 1024 1105.466182 999.854545 1105.466182 970.007273V329.658182c-0.279273-29.556364-24.901818-53.713455-55.028364-53.713455zM880.709818 126.987636l0.546909-1.908363c5.469091-22.784 13.149091-53.992727-1.093818-83.560728 59.950545 17.093818 104.576 67.281455 114.967273 128.605091-16.965818-4.608-38.050909-8.145455-58.030546-11.403636-14.510545-2.443636-31.208727-5.143273-44.078545-8.401455a139.112727 139.112727 0 0 1-15.592727-4.887272c0.267636-5.422545 1.629091-11.938909 3.281454-18.443637zM118.818909 444.16c0-10.309818 8.482909-19.002182 19.153455-19.002182h358.365091c22.446545 0 45.707636-22.248727 81.850181-58.333091l0.814546-0.814545c20.817455-20.619636 55.575273-55.354182 69.538909-55.354182h402.152727c10.414545 0 19.176727 8.413091 19.176727 19.002182V970.007273c0 10.309818-8.494545 18.990545-19.16509 18.990545H140.730182a17.105455 17.105455 0 0 0-6.295273-1.082182h-3.025454a18.804364 18.804364 0 0 1-12.311273-17.640727V444.171636h-0.267637zM846.487273 116.945455c-2.734545 11.124364-5.469091 22.516364-5.469091 33.37309 0 22.248727 27.101091 29.847273 35.851636 32.29091 15.336727 4.340364 35.863273 7.866182 53.934546 10.84509 23.272727 3.805091 52.014545 8.413091 67.618909 14.929455v67.560727H648.552727c-29.021091 0-61.044364 32.011636-95.266909 65.931637l-3.013818 2.978909c-12.590545 12.485818-24.634182 24.424727-35.316364 33.105454-13.963636 11.671273-19.165091 12.218182-19.165091 12.218182H213.550545V53.992727c0-10.321455 8.482909-19.002182 19.165091-19.002182h597.061819c30.952727 23.610182 24.098909 51.828364 16.709818 81.943273zM84.887273 983.04c-30.673455-11.682909-49.570909-43.426909-49.570909-83.316364v-4.875636l-0.267637-0.546909V347.298909c0-10.309818 8.494545-18.990545 19.165091-18.990545h123.461818v61.858909h-39.959272c-30.114909 0-54.481455 24.157091-54.481455 53.992727v525.847273c0 4.608 0.546909 8.680727 1.640727 13.032727z m615.133091-346.496c0-9.774545 7.947636-17.640727 17.803636-17.640727h254.324364c9.856 0 17.792 7.866182 17.792 17.640727a17.687273 17.687273 0 0 1-17.803637 17.629091H717.824a17.687273 17.687273 0 0 1-17.792-17.629091z m31.767272-462.626909a17.687273 17.687273 0 0 1-17.803636 17.640727H306.082909a17.687273 17.687273 0 0 1-17.803636-17.640727c0-9.762909 7.947636-17.629091 17.803636-17.629091h407.901091c9.856 0 17.803636 8.145455 17.803636 17.629091z m-31.767272 621.079273c0-9.774545 7.947636-17.640727 17.803636-17.640728h254.324364c9.856 0 17.792 7.877818 17.792 17.640728a17.687273 17.687273 0 0 1-17.803637 17.640727H717.824c-9.844364-0.279273-17.792-8.145455-17.792-17.640727zM500.724364 281.099636a17.687273 17.687273 0 0 1-17.803637 17.629091H306.094545a17.687273 17.687273 0 0 1-17.803636-17.629091c0-9.774545 7.947636-17.640727 17.803636-17.640727H482.920727c9.856 0 17.792 7.866182 17.792 17.640727z" fill="#e6e6e6" p-id="3246"></path></svg>