<?xml version="1.0" standalone="no"?><!DOCTYPE svg PUBLIC "-//W3C//DTD SVG 1.1//EN" "http://www.w3.org/Graphics/SVG/1.1/DTD/svg11.dtd"><svg t="1556938596542" class="icon" style="" viewBox="0 0 1024 1024" version="1.1" xmlns="http://www.w3.org/2000/svg" p-id="26529" xmlns:xlink="http://www.w3.org/1999/xlink" width="12" height="12"><defs><style type="text/css"></style></defs><path d="M187.733333 614.4h-3.413333c-10.24-3.413333-13.653333-10.24-13.653333-20.48 3.413333-10.24 6.826667-23.893333 13.653333-34.133333 3.413333-10.24 13.653333-13.653333 23.893333-6.826667 6.826667 3.413333 13.653333 13.653333 6.826667 23.893333-6.826667 6.826667-10.24 17.066667-10.24 23.893334-3.413333 6.826667-10.24 13.653333-17.066667 13.653333z m47.786667-88.746667c-3.413333 0-6.826667 0-10.24-3.413333-6.826667-6.826667-10.24-17.066667-3.413333-23.893333 6.826667-10.24 13.653333-17.066667 20.48-27.306667 6.826667-6.826667 17.066667-6.826667 23.893333-3.413333 6.826667 6.826667 6.826667 17.066667 3.413333 23.893333-6.826667 10.24-13.653333 17.066667-20.48 27.306667-3.413333 3.413333-6.826667 6.826667-13.653333 6.826666z m68.266667-78.506666c-3.413333 0-10.24 0-10.24-3.413334-6.826667-6.826667-6.826667-17.066667 0-23.893333 3.413333-10.24 13.653333-17.066667 20.48-27.306667 6.826667-6.826667 17.066667-6.826667 23.893333 0s6.826667 17.066667 0 23.893334l-23.893333 23.893333c-3.413333 3.413333-6.826667 6.826667-10.24 6.826667z m75.093333-71.68c-3.413333 0-10.24-3.413333-13.653333-6.826667-6.826667-6.826667-6.826667-17.066667 0-23.893333 10.24-6.826667 17.066667-13.653333 27.306666-23.893334 6.826667-6.826667 17.066667-3.413333 23.893334 3.413334 6.826667 6.826667 3.413333 17.066667-3.413334 23.893333-10.24 6.826667-17.066667 13.653333-27.306666 20.48 0 6.826667-3.413333 6.826667-6.826667 6.826667z m78.506667-64.853334c-6.826667 0-10.24-3.413333-13.653334-6.826666-6.826667-6.826667-3.413333-17.066667 3.413334-23.893334 10.24-6.826667 17.066667-13.653333 27.306666-20.48 6.826667-6.826667 17.066667-3.413333 23.893334 3.413334 6.826667 6.826667 3.413333 17.066667-3.413334 23.893333-10.24 6.826667-17.066667 13.653333-27.306666 20.48-3.413333 3.413333-6.826667 3.413333-10.24 3.413333z m81.92-58.026666c-6.826667 0-10.24-3.413333-13.653334-6.826667-3.413333-6.826667-3.413333-17.066667 6.826667-23.893333 10.24-6.826667 20.48-13.653333 30.72-17.066667 6.826667-3.413333 17.066667-3.413333 23.893333 6.826667 3.413333 6.826667 3.413333 17.066667-6.826666 23.893333-10.24 6.826667-20.48 10.24-27.306667 17.066667h-13.653333z m92.16-51.2c-6.826667 0-13.653333-3.413333-13.653334-10.24-3.413333-6.826667 0-17.066667 6.826667-23.893334 10.24-6.826667 20.48-10.24 30.72-13.653333 10.24-3.413333 17.066667 0 23.893333 10.24 3.413333 10.24 0 17.066667-10.24 23.893333-10.24 3.413333-20.48 6.826667-30.72 13.653334h-6.826666z m95.573333-30.72c-10.24 0-17.066667-6.826667-17.066667-17.066667 0-6.826667 6.826667-17.066667 17.066667-17.066667h6.826667c10.24 0 17.066667 6.826667 17.066666 17.066667s-6.826667 17.066667-17.066666 17.066667h-6.826667zM658.773333 1024h-266.24c-10.24 0-17.066667-6.826667-17.066666-17.066667 0-58.026667 44.373333-102.4 102.4-102.4h51.2l-170.666667-170.666666c-23.893333-23.893333-23.893333-64.853333 0-88.746667 23.893333-23.893333 64.853333-23.893333 88.746667 0l44.373333 44.373333c3.413333-10.24 6.826667-17.066667 13.653333-23.893333 10.24-10.24 27.306667-17.066667 44.373334-17.066667h13.653333c0-13.653333 6.826667-27.306667 17.066667-37.546666 17.066667-17.066667 47.786667-23.893333 68.266666-13.653334 3.413333-10.24 6.826667-20.48 17.066667-30.72 23.893333-23.893333 64.853333-23.893333 88.746667 0l64.853333 68.266667c44.373333 44.373333 68.266667 102.4 68.266667 163.84 0 122.88-102.4 225.28-228.693334 225.28z m-245.76-34.133333h245.76c105.813333 0 194.56-88.746667 194.56-194.56 0-51.2-20.48-102.4-58.026666-139.946667l-64.853334-68.266667c-10.24-10.24-30.72-10.24-40.96 0-10.24 10.24-10.24 30.72 0 40.96 6.826667 6.826667 6.826667 17.066667 0 23.893334-6.826667 6.826667-17.066667 6.826667-23.893333 0l-20.48-20.48c-10.24-10.24-30.72-10.24-40.96 0-10.24 10.24-10.24 27.306667 0 40.96l20.48 20.48c6.826667 6.826667 6.826667 17.066667 0 23.893333-6.826667 6.826667-17.066667 6.826667-23.893333 0l-20.48-20.48-10.24-10.24c-6.826667-6.826667-13.653333-6.826667-20.48-6.826667-6.826667 0-13.653333 3.413333-20.48 6.826667-10.24 10.24-10.24 30.72 0 40.96l54.613333 54.613333c6.826667 6.826667 6.826667 17.066667 0 23.893334-6.826667 6.826667-17.066667 6.826667-23.893333 0l-136.533334-136.533334c-10.24-10.24-30.72-10.24-40.96 0-10.24 10.24-10.24 30.72 0 40.96l201.386667 201.386667c3.413333 3.413333 6.826667 13.653333 3.413333 17.066667-3.413333 6.826667-10.24 10.24-17.066666 10.24H477.866667c-30.72 0-58.026667 20.48-64.853334 51.2z" p-id="26530" fill="#1296db"></path><path d="M153.6 887.466667C68.266667 887.466667 0 819.2 0 733.866667S68.266667 580.266667 153.6 580.266667 307.2 648.533333 307.2 733.866667 238.933333 887.466667 153.6 887.466667z m0-273.066667C88.746667 614.4 34.133333 669.013333 34.133333 733.866667S88.746667 853.333333 153.6 853.333333 273.066667 798.72 273.066667 733.866667 218.453333 614.4 153.6 614.4zM870.4 307.2c-10.24 0-17.066667 0-27.306667-3.413333-10.24 0-17.066667-10.24-13.653333-20.48 0-10.24 10.24-17.066667 20.48-13.653334 10.24 3.413333 20.48 3.413333 30.72 3.413334 10.24 0 17.066667 6.826667 17.066667 17.066666s-6.826667 17.066667-17.066667 17.066667h-10.24z m75.093333-20.48c-6.826667 0-10.24-3.413333-13.653333-6.826667-3.413333-6.826667-3.413333-17.066667 6.826667-23.893333 6.826667-6.826667 17.066667-10.24 23.893333-20.48 6.826667-6.826667 17.066667-6.826667 23.893333 0 3.413333 3.413333 3.413333 17.066667-3.413333 23.893333-10.24 10.24-17.066667 17.066667-30.72 23.893334-3.413333 0-3.413333 3.413333-6.826667 3.413333zM785.066667 276.48c-3.413333 0-6.826667 0-10.24-3.413333-10.24-6.826667-20.48-17.066667-27.306667-27.306667-6.826667-6.826667-3.413333-17.066667 3.413333-23.893333 6.826667-6.826667 17.066667-3.413333 23.893334 3.413333l20.48 20.48c6.826667 6.826667 6.826667 17.066667 3.413333 23.893333-3.413333 6.826667-10.24 6.826667-13.653333 6.826667zM1003.52 204.8h-3.413333c-10.24-3.413333-13.653333-10.24-13.653334-20.48 3.413333-10.24 3.413333-20.48 3.413334-30.72v-3.413333-3.413334c0-10.24-3.413333-20.48-3.413334-30.72-3.413333-10.24 3.413333-17.066667 10.24-20.48 10.24-3.413333 17.066667 3.413333 20.48 10.24 3.413333 17.066667 6.826667 30.72 6.826667 40.96v6.826667c0 13.653333 0 23.893333-3.413333 37.546667-3.413333 6.826667-10.24 13.653333-17.066667 13.653333z m-269.653333-13.653333c-6.826667 0-17.066667-6.826667-17.066667-13.653334v-20.48-17.066666c0-10.24 10.24-17.066667 20.48-13.653334 10.24 0 17.066667 10.24 13.653333 20.48v30.72c3.413333 3.413333-3.413333 10.24-17.066666 13.653334 3.413333 0 3.413333 0 0 0z m23.893333-98.986667c-3.413333 0-6.826667 0-10.24-3.413333-6.826667-6.826667-10.24-17.066667-3.413333-23.893334 6.826667-10.24 17.066667-20.48 27.306666-27.306666 6.826667-6.826667 17.066667-6.826667 23.893334 3.413333 6.826667 6.826667 6.826667 17.066667-3.413334 23.893333-6.826667 3.413333-13.653333 13.653333-20.48 20.48-3.413333 3.413333-6.826667 6.826667-13.653333 6.826667z m208.213333-17.066667c-3.413333 0-10.24 0-13.653333-3.413333-6.826667-6.826667-13.653333-13.653333-23.893333-17.066667-3.413333-10.24-6.826667-20.48-3.413334-27.306666 3.413333-6.826667 13.653333-10.24 23.893334-6.826667 10.24 6.826667 20.48 13.653333 30.72 23.893333 6.826667 6.826667 6.826667 17.066667 0 23.893334-3.413333 3.413333-6.826667 6.826667-13.653334 6.826666z m-126.293333-37.546666c-6.826667 0-13.653333-6.826667-17.066667-13.653334-3.413333-10.24 3.413333-17.066667 13.653334-20.48 13.653333-3.413333 23.893333-3.413333 34.133333-3.413333h6.826667c10.24 0 17.066667 6.826667 17.066666 17.066667s-6.826667 17.066667-17.066666 17.066666h-3.413334c-10.24 0-17.066667 0-23.893333 3.413334h-10.24z" p-id="26531" fill="#1296db"></path></svg>